<?xml version="1.0" encoding="UTF-8"?>
<!DOCTYPE svg PUBLIC "-//W3C//DTD SVG 1.1//EN" "http://www.w3.org/Graphics/SVG/1.1/DTD/svg11.dtd">
<svg xmlns="http://www.w3.org/2000/svg" version="1.1" width="216px" height="216px" style="shape-rendering:geometricPrecision; text-rendering:geometricPrecision; image-rendering:optimizeQuality; fill-rule:evenodd; clip-rule:evenodd" xmlns:xlink="http://www.w3.org/1999/xlink">
<g><path style="opacity:1" fill="#639fbc" d="M -0.5,-0.5 C 71.5,-0.5 143.5,-0.5 215.5,-0.5C 215.5,71.5 215.5,143.5 215.5,215.5C 143.5,215.5 71.5,215.5 -0.5,215.5C -0.5,143.5 -0.5,71.5 -0.5,-0.5 Z"/></g>
<g><path style="opacity:1" fill="#d8e7ee" d="M 127.5,35.5 C 133.252,21.4249 129.252,17.9249 115.5,25C 114.167,26 112.833,27 111.5,28C 113.751,27.7932 116.085,27.6265 118.5,27.5C 118.362,33.2127 115.695,34.8794 110.5,32.5C 110.64,30.8762 109.973,29.7096 108.5,29C 114.013,22.4074 121.013,19.4074 129.5,20C 132.961,22.9873 133.461,26.4873 131,30.5C 130.303,32.5844 129.136,34.2511 127.5,35.5 Z"/></g>
<g><path style="opacity:1" fill="#f9fbfc" d="M 154.5,62.5 C 155.167,62.8333 155.833,63.1667 156.5,63.5C 162.117,66.4953 166.783,70.662 170.5,76C 174.5,76.3333 178.5,76.6667 182.5,77C 181.333,78.8333 180.167,80.6667 179,82.5C 178.506,80.8659 178.34,79.1992 178.5,77.5C 175.843,77.162 173.51,77.8287 171.5,79.5C 177.508,87.936 176.508,95.436 168.5,102C 165.784,102.782 163.45,104.116 161.5,106C 161.833,106.5 162.167,107 162.5,107.5C 173.032,103.461 178.865,95.7946 180,84.5C 179.849,97.1666 173.683,105.5 161.5,109.5C 160.526,111.743 160.192,114.076 160.5,116.5C 171.359,117.067 182.026,115.901 192.5,113C 191.294,111.982 191.627,111.482 193.5,111.5C 194.737,111.556 195.737,112.056 196.5,113C 194.999,114.252 193.332,115.252 191.5,116C 180.584,118.012 169.584,119.512 158.5,120.5C 157.96,121.748 157.293,122.915 156.5,124C 173.575,127.244 190.575,127.244 207.5,124C 203.495,126.422 199.162,128.089 194.5,129C 188.515,129.799 182.515,130.465 176.5,131C 177.624,131.249 178.624,131.749 179.5,132.5C 179.333,132.833 179.167,133.167 179,133.5C 177.6,134.116 176.1,134.449 174.5,134.5C 169.037,133.513 163.703,132.013 158.5,130C 155.294,129.11 152.294,129.443 149.5,131C 154,136.167 158.5,141.333 163,146.5C 163.667,147.5 163.667,148.5 163,149.5C 157.624,144.292 152.457,138.959 147.5,133.5C 144.811,136.52 142.144,139.52 139.5,142.5C 138.662,142.842 138.328,143.508 138.5,144.5C 132.699,148.486 126.366,150.986 119.5,152C 123.29,149.623 127.29,147.623 131.5,146C 130.906,145.536 130.239,145.369 129.5,145.5C 130.091,144.849 130.757,144.182 131.5,143.5C 131,143.167 130.5,142.833 130,142.5C 128.433,143.856 126.6,144.523 124.5,144.5C 121.15,144.335 117.817,144.502 114.5,145C 111.992,145.115 109.992,146.115 108.5,148C 108.645,148.772 108.978,149.439 109.5,150C 112.334,151.6 115.334,152.766 118.5,153.5C 119.456,155.075 120.123,156.742 120.5,158.5C 121.947,159.622 122.947,161.122 123.5,163C 127.879,164.156 132.212,164.489 136.5,164C 135.437,165.188 134.103,165.688 132.5,165.5C 129.102,165.18 125.768,165.513 122.5,166.5C 122.624,167.107 122.957,167.44 123.5,167.5C 123.5,170.5 123.5,173.5 123.5,176.5C 122.833,173.833 122.167,171.167 121.5,168.5C 121.5,167.167 121.5,165.833 121.5,164.5C 118.512,163.839 115.512,163.172 112.5,162.5C 107.132,164.239 102.632,162.906 99,158.5C 93.2811,163.675 90.1144,170.008 89.5,177.5C 88.9987,175.754 88.3321,174.754 87.5,174.5C 85.8333,175.833 84.1667,177.167 82.5,178.5C 86.0635,172.86 88.3968,166.694 89.5,160C 89.1667,159.5 88.8333,159 88.5,158.5C 80.6179,167.76 72.6179,176.927 64.5,186C 61.8338,188.335 58.8338,190.169 55.5,191.5C 54.2801,191.113 53.6135,190.28 53.5,189C 54.884,185.124 56.884,181.624 59.5,178.5C 59.8333,178.833 60.1667,179.167 60.5,179.5C 58.7099,182.388 57.5432,185.388 57,188.5C 68.2438,179.258 78.0772,168.758 86.5,157C 84.8659,156.506 83.1992,156.34 81.5,156.5C 80.9761,161.381 78.9761,165.548 75.5,169C 74.8333,169.667 74.1667,169.667 73.5,169C 75.7223,166.382 77.2223,163.549 78,160.5C 75.3413,164.236 71.8413,166.569 67.5,167.5C 67.5,166.5 67.5,165.5 67.5,164.5C 68.8734,164.657 70.2068,164.49 71.5,164C 74.5,161 77.5,158 80.5,155C 79.1092,153.35 77.6092,152.85 76,153.5C 75.3551,152.354 74.5217,151.354 73.5,150.5C 73.7093,149.914 74.0426,149.414 74.5,149C 73.0715,148.421 71.7382,148.588 70.5,149.5C 69.2768,146.648 67.2768,145.981 64.5,147.5C 59.874,143.027 55.7073,138.027 52,132.5C 51.3292,133.252 50.4959,133.586 49.5,133.5C 50.7784,131.456 50.6117,129.456 49,127.5C 46,124.5 43,121.5 40,118.5C 35.3871,110.68 37.0538,104.68 45,100.5C 48.0159,93.5023 49.1825,86.1689 48.5,78.5C 43.1584,79.6716 39.4918,82.8383 37.5,88C 39.2464,88.4709 40.913,89.1376 42.5,90C 41.376,90.2492 40.376,90.7492 39.5,91.5C 40.6933,93.5267 42.36,95.0267 44.5,96C 40.9172,96.7049 38.2506,95.5382 36.5,92.5C 35.0813,91.5489 33.4147,91.2155 31.5,91.5C 32.4006,89.2729 34.0672,88.2729 36.5,88.5C 36.7553,85.9837 37.5886,83.6504 39,81.5C 42.6667,79.1667 46.3333,76.8333 50,74.5C 51.4485,70.4379 53.2818,66.6046 55.5,63C 52.0105,60.0887 48.3438,57.422 44.5,55C 49.9465,55.7953 55.1132,57.6287 60,60.5C 62.9789,58.3555 65.8122,56.0222 68.5,53.5C 63.3809,49.4337 58.0476,45.6004 52.5,42C 59.9931,43.2448 66.6598,46.4115 72.5,51.5C 73.3081,51.1924 73.9747,50.6924 74.5,50C 69.8333,46 65.1667,42 60.5,38C 64.3806,38.4265 68.0473,39.7599 71.5,42C 73.3848,44.2224 75.5515,46.0557 78,47.5C 90.8344,37.9687 105.168,34.6354 121,37.5C 123.502,37.6616 125.669,36.9949 127.5,35.5C 127.586,36.4959 127.252,37.3292 126.5,38C 132.072,39.8765 136.405,42.7098 139.5,46.5C 141.707,42.8098 143.04,38.8098 143.5,34.5C 143.41,32.5749 142.41,31.4083 140.5,31C 141.784,30.3162 142.951,30.4829 144,31.5C 144.667,34.5 144.667,37.5 144,40.5C 142.564,43.4742 141.564,46.4742 141,49.5C 151.727,40.9475 162.894,32.9475 174.5,25.5C 175.833,26.1667 175.833,26.8333 174.5,27.5C 163.833,35.8333 153.167,44.1667 142.5,52.5C 141.369,54.0745 141.202,55.7412 142,57.5C 142.725,58.0585 143.558,58.3918 144.5,58.5C 149.821,55.6693 155.154,53.1693 160.5,51C 156.361,53.6391 152.361,56.4724 148.5,59.5C 150.243,61.0383 152.243,62.0383 154.5,62.5 Z"/></g>
<g><path style="opacity:1" fill="#dae8ef" d="M 152.5,33.5 C 153.302,32.1153 153.969,32.282 154.5,34C 154.054,35.7259 153.221,37.2259 152,38.5C 151.735,36.8374 152.235,35.3374 153.5,34C 153.272,33.6012 152.938,33.4346 152.5,33.5 Z"/></g>
<g><path style="opacity:1" fill="#74a9c3" d="M 118.5,40.5 C 119.097,39.8614 119.93,39.528 121,39.5C 125.288,42.0604 129.788,44.2271 134.5,46C 138.36,49.2109 138.027,51.5442 133.5,53C 129.838,47.1662 124.838,42.9995 118.5,40.5 Z"/></g>
<g><path style="opacity:1" fill="#a9cada" d="M 96.5,46.5 C 95.0998,47.1001 94.0998,48.1001 93.5,49.5C 92.4265,48.7494 92.2599,47.7494 93,46.5C 94.2917,45.2089 95.4583,45.2089 96.5,46.5 Z"/></g>
<g><path style="opacity:1" fill="#78abc5" d="M 100.5,41.5 C 107.322,41.1239 113.988,41.9572 120.5,44C 123.311,45.6437 125.644,47.8103 127.5,50.5C 121.115,50.5615 115.115,48.7282 109.5,45C 105.853,44.2255 102.186,43.5588 98.5,43C 99.4158,42.7216 100.082,42.2216 100.5,41.5 Z"/></g>
<g><path style="opacity:1" fill="#7aadc6" d="M 86.5,45.5 C 88.7583,45.7751 89.0916,46.7751 87.5,48.5C 85.2351,49.6474 82.9018,49.8141 80.5,49C 82.7274,48.059 84.7274,46.8923 86.5,45.5 Z"/></g>
<g><path style="opacity:1" fill="#6ba4bf" d="M 93.5,49.5 C 94.0998,48.1001 95.0998,47.1001 96.5,46.5C 100.487,44.8318 104.154,45.3318 107.5,48C 104.121,49.7385 100.788,51.5718 97.5,53.5C 95.4777,52.8111 94.1444,51.4778 93.5,49.5 Z"/></g>
<g><path style="opacity:1" fill="#7caec7" d="M 118.5,52.5 C 118.56,51.9569 118.893,51.6236 119.5,51.5C 120.795,52.0983 122.128,52.5983 123.5,53C 121.735,53.6397 120.068,53.4731 118.5,52.5 Z"/></g>
<g><path style="opacity:1" fill="#83b2c9" d="M 80.5,53.5 C 84.5878,53.2184 85.0878,53.8851 82,55.5C 80.9701,55.1639 80.4701,54.4972 80.5,53.5 Z"/></g>
<g><path style="opacity:1" fill="#79acc5" d="M 107.5,53.5 C 109.604,53.2011 111.604,53.5344 113.5,54.5C 109.888,55.7068 106.221,56.2068 102.5,56C 104.315,55.2432 105.981,54.4098 107.5,53.5 Z"/></g>
<g><path style="opacity:1" fill="#77abc5" d="M 90.5,51.5 C 92.3258,53.4551 92.8258,55.7884 92,58.5C 90.7978,56.3225 90.2978,53.9892 90.5,51.5 Z"/></g>
<g><path style="opacity:1" fill="#74a9c3" d="M 76.5,57.5 C 78.6348,57.147 79.9681,57.9803 80.5,60C 80.0464,62.0364 79.2131,63.8697 78,65.5C 76.7475,62.9865 76.2475,60.3198 76.5,57.5 Z"/></g>
<g><path style="opacity:1" fill="#73a9c3" d="M 107.5,57.5 C 110.833,57.5 114.167,57.5 117.5,57.5C 117.5,59.5 117.5,61.5 117.5,63.5C 112.833,63.5 108.167,63.5 103.5,63.5C 103.67,62.1779 103.337,61.0113 102.5,60C 104.175,59.0147 105.842,58.1814 107.5,57.5 Z"/></g>
<g><path style="opacity:1" fill="#71a8c2" d="M 122.5,58.5 C 131.265,57.5783 131.765,59.245 124,63.5C 123.392,61.8455 122.892,60.1789 122.5,58.5 Z"/></g>
<g><path style="opacity:1" fill="#6da5c0" d="M 65.5,60.5 C 66.5,60.5 67.5,60.5 68.5,60.5C 68.1439,65.0083 67.1439,69.3417 65.5,73.5C 62.952,69.3077 62.952,64.9744 65.5,60.5 Z"/></g>
<g><path style="opacity:1" fill="#6fa6c1" d="M 71.5,60.5 C 73.0276,61.8021 74.0276,63.4687 74.5,65.5C 74.6629,68.9397 72.9962,70.9397 69.5,71.5C 69.0133,67.7478 69.6799,64.0812 71.5,60.5 Z"/></g>
<g><path style="opacity:1" fill="#acccdb" d="M 71.5,60.5 C 72.209,59.596 73.209,59.2627 74.5,59.5C 74.5,61.5 74.5,63.5 74.5,65.5C 74.0276,63.4687 73.0276,61.8021 71.5,60.5 Z"/></g>
<g><path style="opacity:1" fill="#78acc5" d="M 87.5,62.5 C 86.209,62.2627 85.209,62.596 84.5,63.5C 82.0299,62.6397 81.8632,61.3064 84,59.5C 85.8161,60.3295 87.6494,61.1628 89.5,62C 88.9056,62.4643 88.2389,62.631 87.5,62.5 Z"/></g>
<g><path style="opacity:1" fill="#accbdb" d="M 96.5,59.5 C 97.675,59.281 98.675,59.6143 99.5,60.5C 97.9483,61.7979 96.9483,61.4646 96.5,59.5 Z"/></g>
<g><path style="opacity:1" fill="#a9cada" d="M 119.5,59.5 C 121.273,60.3143 121.773,61.6476 121,63.5C 119.812,62.4366 119.312,61.1033 119.5,59.5 Z"/></g>
<g><path style="opacity:1" fill="#d4e4ec" d="M 156.5,63.5 C 155.833,63.1667 155.167,62.8333 154.5,62.5C 158.419,58.5889 163.086,57.4223 168.5,59C 164.202,59.9 160.202,61.4 156.5,63.5 Z"/></g>
<g><path style="opacity:1" fill="#82b1c9" d="M 139.5,61.5 C 142.968,61.1878 146.301,62.1878 149.5,64.5C 148.277,65.6139 146.944,65.7805 145.5,65C 142.981,64.4136 140.981,63.2469 139.5,61.5 Z"/></g>
<g><path style="opacity:1" fill="#95bdd1" d="M 84.5,63.5 C 85.209,62.596 86.209,62.2627 87.5,62.5C 88.842,63.793 90.5087,64.6264 92.5,65C 90.3911,66.1411 88.5578,67.6411 87,69.5C 86.4926,68.0039 86.9926,66.8373 88.5,66C 86.2992,65.1751 84.4659,65.6751 83,67.5C 82.5172,66.552 82.3505,65.552 82.5,64.5C 84.4008,64.7535 85.0674,64.4202 84.5,63.5 Z"/></g>
<g><path style="opacity:1" fill="#6ba4bf" d="M 59.5,77.5 C 57.7857,76.2616 55.7857,75.595 53.5,75.5C 53.9531,71.9727 55.4531,68.9727 58,66.5C 57.8928,70.4886 59.0595,73.9886 61.5,77C 60.9056,77.4643 60.2389,77.631 59.5,77.5 Z"/></g>
<g><path style="opacity:1" fill="#9cc2d4" d="M 160.5,68.5 C 159.508,68.3284 158.842,68.6618 158.5,69.5C 155.654,69.9699 153.321,69.1366 151.5,67C 151.833,66.6667 152.167,66.3333 152.5,66C 154.138,66.242 155.638,67.0753 157,68.5C 158.292,67.2089 159.458,67.2089 160.5,68.5 Z"/></g>
<g><path style="opacity:1" fill="#72a8c2" d="M 160.5,68.5 C 163.016,69.6004 164.016,71.2671 163.5,73.5C 161.581,72.3875 159.914,71.0542 158.5,69.5C 158.842,68.6618 159.508,68.3284 160.5,68.5 Z"/></g>
<g><path style="opacity:1" fill="#7fb0c8" d="M 75.5,69.5 C 76.5735,70.2506 76.7401,71.2506 76,72.5C 74.2897,73.9448 72.4564,74.7782 70.5,75C 71.6924,72.6451 73.359,70.8118 75.5,69.5 Z"/></g>
<g><path style="opacity:1" fill="#79acc5" d="M 145.5,71.5 C 146.601,70.4017 147.934,70.235 149.5,71C 153.222,72.0997 156.056,74.2663 158,77.5C 158.233,79.7801 159.066,81.7801 160.5,83.5C 158.354,86.9017 158.021,90.5683 159.5,94.5C 159.564,96.3893 159.064,98.0559 158,99.5C 160.372,87.0946 156.205,77.7613 145.5,71.5 Z"/></g>
<g><path style="opacity:1" fill="#93bdd1" d="M 78.5,70.5 C 80.4646,70.9483 80.7979,71.9483 79.5,73.5C 78.6143,72.675 78.281,71.675 78.5,70.5 Z"/></g>
<g><path style="opacity:1" fill="#8bb8cd" d="M 122.5,71.5 C 123.675,71.281 124.675,71.6143 125.5,72.5C 123.948,73.7979 122.948,73.4646 122.5,71.5 Z"/></g>
<g><path style="opacity:1" fill="#a5c7d8" d="M 132.5,73.5 C 133.675,73.281 134.675,73.6143 135.5,74.5C 133.948,75.7979 132.948,75.4646 132.5,73.5 Z"/></g>
<g><path style="opacity:1" fill="#72a8c2" d="M 76.5,74.5 C 78.9815,75.6962 78.9815,77.1962 76.5,79C 74.597,79.7737 72.9304,79.4404 71.5,78C 73.5844,77.3028 75.2511,76.1361 76.5,74.5 Z"/></g>
<g><path style="opacity:1" fill="#69a3bf" d="M 51.5,76.5 C 54.1522,76.4095 56.4855,77.0762 58.5,78.5C 56.093,79.7945 53.9263,81.4611 52,83.5C 51.5034,81.1902 51.3367,78.8568 51.5,76.5 Z"/></g>
<g><path style="opacity:1" fill="#7daec7" d="M 166.5,80.5 C 165.833,80.5 165.5,80.8333 165.5,81.5C 163.487,80.5248 162.154,78.8581 161.5,76.5C 162.776,75.3554 164.109,75.3554 165.5,76.5C 165.788,77.8605 166.121,79.1938 166.5,80.5 Z"/></g>
<g><path style="opacity:1" fill="#c2d9e4" d="M 51.5,76.5 C 51.8417,75.6618 52.5084,75.3284 53.5,75.5C 55.7857,75.595 57.7857,76.2616 59.5,77.5C 59.5,78.1667 59.1667,78.5 58.5,78.5C 56.4855,77.0762 54.1522,76.4095 51.5,76.5 Z"/></g>
<g><path style="opacity:1" fill="#c4dbe5" d="M 147.5,78.5 C 146.833,81.5 146.167,84.5 145.5,87.5C 145.18,84.1016 145.513,80.7683 146.5,77.5C 147.107,77.6236 147.44,77.9569 147.5,78.5 Z"/></g>
<g><path style="opacity:1" fill="#69a3bf" d="M 147.5,78.5 C 153.38,83.1335 154.714,88.8002 151.5,95.5C 146.781,94.79 144.781,92.1234 145.5,87.5C 146.167,84.5 146.833,81.5 147.5,78.5 Z"/></g>
<g><path style="opacity:1" fill="#70a7c1" d="M 140.5,80.5 C 143.332,82.4065 144.166,85.0732 143,88.5C 141.927,86.4534 140.761,84.4534 139.5,82.5C 139.863,81.8165 140.196,81.1499 140.5,80.5 Z"/></g>
<g><path style="opacity:1" fill="#b8d2e0" d="M 166.5,80.5 C 168.153,80.6596 169.486,81.3263 170.5,82.5C 169.833,82.5 169.167,82.5 168.5,82.5C 167.504,82.4142 166.671,82.7476 166,83.5C 165.536,82.9056 165.369,82.2389 165.5,81.5C 165.5,80.8333 165.833,80.5 166.5,80.5 Z"/></g>
<g><path style="opacity:1" fill="#6da5c0" d="M 168.5,82.5 C 169.167,82.5 169.833,82.5 170.5,82.5C 175.905,92.8552 172.905,99.0218 161.5,101C 164.795,96.386 166.295,91.2193 166,85.5C 167.045,84.6266 167.878,83.6266 168.5,82.5 Z"/></g>
<g><path style="opacity:1" fill="#69a3be" d="M 58.5,84.5 C 59.8734,84.3433 61.2068,84.51 62.5,85C 60.0004,89.497 58.6671,94.3303 58.5,99.5C 57.5,99.5 56.5,99.5 55.5,99.5C 55.1193,94.1979 56.1193,89.1979 58.5,84.5 Z"/></g>
<g><path style="opacity:1" fill="#6da5c0" d="M 67.5,87.5 C 66.4491,91.2687 65.1157,94.9354 63.5,98.5C 63.44,99.0431 63.1067,99.3764 62.5,99.5C 62.1667,98.1667 61.8333,96.8333 61.5,95.5C 62.0988,91.3757 63.0988,87.3757 64.5,83.5C 67.9536,83.2668 68.9536,84.6001 67.5,87.5 Z"/></g>
<g><path style="opacity:1" fill="#c4dae5" d="M 72.5,86.5 C 72.56,85.9569 72.8933,85.6236 73.5,85.5C 74.5,86.5 75.5,87.5 76.5,88.5C 76.1667,88.8333 75.8333,89.1667 75.5,89.5C 74.265,88.6602 73.265,87.6602 72.5,86.5 Z"/></g>
<g><path style="opacity:1" fill="#8db9ce" d="M 161.5,88.5 C 162.725,89.1522 163.392,90.3189 163.5,92C 163.167,93.1667 162.833,94.3333 162.5,95.5C 161.526,93.2573 161.192,90.924 161.5,88.5 Z"/></g>
<g><path style="opacity:1" fill="#afcedd" d="M 31.5,91.5 C 33.4147,91.2155 35.0813,91.5489 36.5,92.5C 35.3052,92.6775 34.1385,93.0109 33,93.5C 31.9701,93.1639 31.4701,92.4972 31.5,91.5 Z"/></g>
<g><path style="opacity:1" fill="#7aadc6" d="M 69.5,88.5 C 70.0967,88.7352 70.4301,89.2352 70.5,90C 69.0342,92.4318 67.7008,94.9318 66.5,97.5C 65.9569,97.44 65.6236,97.1067 65.5,96.5C 66.8466,93.8068 68.1799,91.1401 69.5,88.5 Z"/></g>
<g><path style="opacity:1" fill="#c1d8e4" d="M 67.5,87.5 C 68.1667,87.8333 68.8333,88.1667 69.5,88.5C 68.1799,91.1401 66.8466,93.8068 65.5,96.5C 65.6236,97.1067 65.9569,97.44 66.5,97.5C 65.8946,99.4812 64.8946,99.8146 63.5,98.5C 65.1157,94.9354 66.4491,91.2687 67.5,87.5 Z"/></g>
<g><path style="opacity:1" fill="#79acc5" d="M 143.5,96.5 C 144.649,96.7911 145.316,97.6244 145.5,99C 145.333,99.8333 145.167,100.667 145,101.5C 143.731,100.095 143.231,98.4286 143.5,96.5 Z"/></g>
<g><path style="opacity:1" fill="#6da6c0" d="M 147.5,96.5 C 152.7,98.5067 152.7,100.173 147.5,101.5C 147.5,99.8333 147.5,98.1667 147.5,96.5 Z"/></g>
<g><path style="opacity:1" fill="#71a7c2" d="M 49.5,104.5 C 54.5847,107.303 55.418,110.97 52,115.5C 49.7912,112.211 48.9579,108.544 49.5,104.5 Z"/></g>
<g><path style="opacity:1" fill="#70a7c1" d="M 55.5,104.5 C 58.423,105.163 59.0897,106.83 57.5,109.5C 56.0499,108.15 55.3832,106.484 55.5,104.5 Z"/></g>
<g><path style="opacity:1" fill="#b1cedd" d="M 154.5,106.5 C 154.167,107.5 153.5,108.167 152.5,108.5C 152.095,107.45 151.429,107.45 150.5,108.5C 149.479,107.998 149.312,107.332 150,106.5C 151.49,105.272 152.99,105.272 154.5,106.5 Z"/></g>
<g><path style="opacity:1" fill="#6ca4c0" d="M 154.5,106.5 C 155.5,106.5 156.5,106.5 157.5,106.5C 157.492,109.545 157.159,112.545 156.5,115.5C 154.143,115.663 151.81,115.497 149.5,115C 150.711,113.887 150.711,112.72 149.5,111.5C 150.77,110.712 151.77,109.712 152.5,108.5C 153.5,108.167 154.167,107.5 154.5,106.5 Z"/></g>
<g><path style="opacity:1" fill="#a1c5d6" d="M 76.5,114.5 C 78.2726,115.314 78.7726,116.648 78,118.5C 77.2086,117.255 76.7086,115.922 76.5,114.5 Z"/></g>
<g><path style="opacity:1" fill="#7aadc6" d="M 46.5,104.5 C 48.3116,111.472 50.1449,118.472 52,125.5C 45.5576,119.851 43.7243,112.851 46.5,104.5 Z"/></g>
<g><path style="opacity:1" fill="#6ea6c0" d="M 56.5,114.5 C 59.574,116.256 61.574,118.923 62.5,122.5C 61.4296,126.84 59.2629,127.84 56,125.5C 55.4213,121.797 55.588,118.131 56.5,114.5 Z"/></g>
<g><path style="opacity:1" fill="#8eb9ce" d="M 142.5,117.5 C 144.355,117.272 145.188,117.939 145,119.5C 142.366,120.692 141.532,120.026 142.5,117.5 Z"/></g>
<g><path style="opacity:1" fill="#64a0bc" d="M 151.5,120.5 C 154.957,120.667 155.29,121.667 152.5,123.5C 151.614,122.675 151.281,121.675 151.5,120.5 Z"/></g>
<g><path style="opacity:1" fill="#85b3ca" d="M 63.5,126.5 C 65.1207,126.787 66.1207,127.787 66.5,129.5C 61.937,131.005 60.937,130.005 63.5,126.5 Z"/></g>
<g><path style="opacity:1" fill="#bcd6e2" d="M 131.5,126.5 C 133.337,126.639 133.67,127.306 132.5,128.5C 127.586,129.869 127.253,129.203 131.5,126.5 Z"/></g>
<g><path style="opacity:1" fill="#73a9c3" d="M 142.5,126.5 C 146.202,128.221 146.202,129.888 142.5,131.5C 141.566,129.905 141.566,128.239 142.5,126.5 Z"/></g>
<g><path style="opacity:1" fill="#aecddc" d="M 135.5,128.5 C 136.239,128.369 136.906,128.536 137.5,129C 137.018,130.008 136.852,131.175 137,132.5C 135.812,131.437 135.312,130.103 135.5,128.5 Z"/></g>
<g><path style="opacity:1" fill="#70a7c2" d="M 74.5,130.5 C 77.1667,130.5 79.8333,130.5 82.5,130.5C 82.6621,132.527 82.4955,134.527 82,136.5C 77.6111,137.781 76.7777,136.614 79.5,133C 78.451,132.508 77.451,132.674 76.5,133.5C 75.0815,132.995 74.4148,131.995 74.5,130.5 Z"/></g>
<g><path style="opacity:1" fill="#87b4cb" d="M 92.5,129.5 C 95.9069,130.358 99.2402,131.525 102.5,133C 102,133.5 101.5,134 101,134.5C 99.2663,133.751 97.433,133.251 95.5,133C 93.5743,132.578 92.5743,131.411 92.5,129.5 Z"/></g>
<g><path style="opacity:1" fill="#90bbcf" d="M 67.5,132.5 C 69.7279,133.322 70.3946,134.655 69.5,136.5C 67.8888,135.68 67.2222,134.346 67.5,132.5 Z"/></g>
<g><path style="opacity:1" fill="#73a9c3" d="M 86.5,134.5 C 88.0898,134.628 89.4231,135.295 90.5,136.5C 89.396,138.389 88.0627,140.055 86.5,141.5C 84.1047,139.241 84.1047,136.908 86.5,134.5 Z"/></g>
<g><path style="opacity:1" fill="#c7dde7" d="M 159.5,132.5 C 161.238,134.119 161.738,136.119 161,138.5C 159.872,136.655 159.372,134.655 159.5,132.5 Z"/></g>
<g><path style="opacity:1" fill="#8ab7cd" d="M 137.5,134.5 C 141.97,134.03 142.47,135.03 139,137.5C 137.961,136.756 137.461,135.756 137.5,134.5 Z"/></g>
<g><path style="opacity:1" fill="#71a7c2" d="M 117.5,136.5 C 125.844,135.495 126.844,136.829 120.5,140.5C 117.649,140.037 116.649,138.704 117.5,136.5 Z"/></g>
<g><path style="opacity:1" fill="#a5c7d8" d="M 132.5,135.5 C 133.737,136.743 133.404,137.743 131.5,138.5C 131.167,138.167 130.833,137.833 130.5,137.5C 131.243,136.818 131.909,136.151 132.5,135.5 Z"/></g>
<g><path style="opacity:1" fill="#e1ecf2" d="M 49.5,133.5 C 46.2057,139.576 48.2057,142.243 55.5,141.5C 55.7257,146.067 54.2257,146.4 51,142.5C 48.7569,146.604 49.5903,150.104 53.5,153C 56.9684,154.081 59.9684,153.415 62.5,151C 60.1558,150.163 58.1558,148.829 56.5,147C 58.4564,147.222 60.2897,148.055 62,149.5C 62.7083,148.619 63.5416,147.953 64.5,147.5C 63.8288,148.847 63.8288,150.014 64.5,151C 66.8401,151.748 68.8401,151.248 70.5,149.5C 68.9406,152.488 69.9406,154.321 73.5,155C 69.7065,155.527 66.2065,154.694 63,152.5C 56.8193,157.237 51.8193,156.237 48,149.5C 47.7468,146.8 47.7468,144.133 48,141.5C 47.3333,140.167 46.6667,140.167 46,141.5C 45.3012,146.281 44.8012,146.447 44.5,142C 44.5377,138.076 46.2043,135.242 49.5,133.5 Z"/></g>
<g><path style="opacity:1" fill="#79acc5" d="M 56.5,136.5 C 57.7211,135.535 59.0544,135.702 60.5,137C 62.9757,138.309 64.9757,140.142 66.5,142.5C 65.9984,143.521 65.3317,143.688 64.5,143C 61.6693,140.999 59.0026,138.833 56.5,136.5 Z"/></g>
<g><path style="opacity:1" fill="#81b1c9" d="M 90.5,138.5 C 92.4646,138.948 92.7979,139.948 91.5,141.5C 90.6143,140.675 90.281,139.675 90.5,138.5 Z"/></g>
<g><path style="opacity:1" fill="#a5c7d8" d="M 126.5,138.5 C 130.315,138.712 130.315,139.378 126.5,140.5C 125.833,140.333 125.167,140.167 124.5,140C 125.416,139.722 126.082,139.222 126.5,138.5 Z"/></g>
<g><path style="opacity:1" fill="#74a9c3" d="M 136.5,138.5 C 137.404,139.209 137.737,140.209 137.5,141.5C 133.995,141.306 133.662,140.306 136.5,138.5 Z"/></g>
<g><path style="opacity:1" fill="#7badc6" d="M 97.5,138.5 C 98.8333,138.5 100.167,138.5 101.5,138.5C 101.089,141.276 101.922,141.943 104,140.5C 107.365,142.469 107.032,143.802 103,144.5C 101.674,144.245 100.674,143.578 100,142.5C 98.2739,143.576 96.4406,143.743 94.5,143C 95.3862,141.385 96.3862,139.885 97.5,138.5 Z"/></g>
<g><path style="opacity:1" fill="#6ca5c0" d="M 69.5,140.5 C 70.9953,140.415 71.9953,141.081 72.5,142.5C 70.6043,143.639 69.6043,142.973 69.5,140.5 Z"/></g>
<g><path style="opacity:1" fill="#75aac3" d="M 73.5,142.5 C 79.9632,143.405 79.9632,144.738 73.5,146.5C 73.5,145.167 73.5,143.833 73.5,142.5 Z"/></g>
<g><path style="opacity:1" fill="#67a2be" d="M 64.5,147.5 C 63.5416,147.953 62.7083,148.619 62,149.5C 60.2897,148.055 58.4564,147.222 56.5,147C 58.1558,148.829 60.1558,150.163 62.5,151C 59.9684,153.415 56.9684,154.081 53.5,153C 49.5903,150.104 48.7569,146.604 51,142.5C 54.2257,146.4 55.7257,146.067 55.5,141.5C 48.2057,142.243 46.2057,139.576 49.5,133.5C 50.4959,133.586 51.3292,133.252 52,132.5C 55.7073,138.027 59.874,143.027 64.5,147.5 Z"/></g>
<g><path style="opacity:1" fill="#c0d8e4" d="M 129.5,145.5 C 127.585,145.784 125.919,145.451 124.5,144.5C 126.6,144.523 128.433,143.856 130,142.5C 130.5,142.833 131,143.167 131.5,143.5C 130.757,144.182 130.091,144.849 129.5,145.5 Z"/></g>
<g><path style="opacity:1" fill="#cfe2eb" d="M 139.5,142.5 C 146.428,142.927 149.595,146.594 149,153.5C 148.404,147.068 144.904,144.068 138.5,144.5C 138.328,143.508 138.662,142.842 139.5,142.5 Z"/></g>
<g><path style="opacity:1" fill="#69a3bf" d="M 70.5,149.5 C 68.8401,151.248 66.8401,151.748 64.5,151C 63.8288,150.014 63.8288,148.847 64.5,147.5C 67.2768,145.981 69.2768,146.648 70.5,149.5 Z"/></g>
<g><path style="opacity:1" fill="#72a8c3" d="M 81.5,148.5 C 87.6951,148.01 88.0284,149.344 82.5,152.5C 79.1453,151.558 78.812,150.225 81.5,148.5 Z"/></g>
<g><path style="opacity:1" fill="#68a2be" d="M 87.5,150.5 C 88.5,150.5 89.5,150.5 90.5,150.5C 90.5,151.5 90.5,152.5 90.5,153.5C 88.8008,153.66 87.1341,153.494 85.5,153C 86.3805,152.292 87.0472,151.458 87.5,150.5 Z"/></g>
<g><path style="opacity:1" fill="#9fc3d5" d="M 94.5,154.5 C 93.6236,154.631 92.9569,154.298 92.5,153.5C 93.723,152.386 95.0563,152.219 96.5,153C 95.5842,153.278 94.9175,153.778 94.5,154.5 Z"/></g>
<g><path style="opacity:1" fill="#6ea6c1" d="M 106.5,155.5 C 107.919,154.549 109.585,154.216 111.5,154.5C 111.719,155.675 111.386,156.675 110.5,157.5C 109.14,156.82 107.807,156.153 106.5,155.5 Z"/></g>
<g><path style="opacity:1" fill="#6ca5c0" d="M 120.5,158.5 C 120.414,159.496 120.748,160.329 121.5,161C 119.153,161.334 116.819,161.167 114.5,160.5C 114.5,158.5 114.5,156.5 114.5,154.5C 115.552,154.351 116.552,154.517 117.5,155C 118.163,156.518 119.163,157.685 120.5,158.5 Z"/></g>
<g><path style="opacity:1" fill="#75aac4" d="M 94.5,154.5 C 95.675,154.281 96.675,154.614 97.5,155.5C 95.3333,159.167 93.1667,162.833 91,166.5C 90.3333,163.5 90.3333,160.5 91,157.5C 91.985,156.186 93.1516,155.186 94.5,154.5 Z"/></g>
<g><path style="opacity:1" fill="#96bed2" d="M 102.5,156.5 C 104.605,157.868 106.939,158.868 109.5,159.5C 109.167,159.833 108.833,160.167 108.5,160.5C 106.885,159.846 105.218,159.346 103.5,159C 102.748,158.329 102.414,157.496 102.5,156.5 Z"/></g>
<g><path style="opacity:1" fill="#a9cada" d="M 49.5,155.5 C 52.7579,158.766 56.7579,160.266 61.5,160C 56.1004,162.131 52.1004,160.631 49.5,155.5 Z"/></g>
<g><path style="opacity:1" fill="#aacbda" d="M 132.5,165.5 C 129.5,166.167 126.5,166.833 123.5,167.5C 122.957,167.44 122.624,167.107 122.5,166.5C 125.768,165.513 129.102,165.18 132.5,165.5 Z"/></g>
<g><path style="opacity:1" fill="#d1e2eb" d="M 121.5,168.5 C 122.167,171.167 122.833,173.833 123.5,176.5C 123.027,183.095 120.527,188.762 116,193.5C 116.732,190.701 118.066,188.034 120,185.5C 121.217,179.899 121.717,174.232 121.5,168.5 Z"/></g>
<g><path style="opacity:1" fill="#deeaf1" d="M 82.5,178.5 C 78.591,185.573 73.2576,191.073 66.5,195C 72.0638,189.605 77.3971,184.105 82.5,178.5 Z"/></g>
<g><path style="opacity:1" fill="#d0e2eb" d="M 89.5,177.5 C 88.7421,183.887 87.5754,190.22 86,196.5C 85.2411,199.785 83.9078,202.785 82,205.5C 85.5397,195.582 87.373,185.249 87.5,174.5C 88.3321,174.754 88.9987,175.754 89.5,177.5 Z"/></g>
</svg>
